<?xml version="1.0" encoding="utf-8"?>
<svg xmlns="http://www.w3.org/2000/svg" version="1.1" width="200" height="150">
  <path fill="#19191C" d="M 110 130 L 115 145 L 120 145 L 120 148 L 80 148 L 80 145 L 85 145 L 90 130 Z" />

  <path fill="#EE0000" d="M 88 12 L 80 2 L 80 22 Z" />
  <path fill="none" stroke="#EE0000" stroke-width="10" stroke-linecap="round" d="M 80 12 L 50 12 C 10 12 10 12 10 50 L 10 80 C 10 130 10 130 50 130 L 80 130" />

  <path fill="#00CC00" d="M 114 130 L 122 120 L 122 140 Z" />
  <path fill="none" stroke="#00CC00" stroke-width="10" stroke-linecap="round" d="M 97 12 L 150 12 C 190 12 190 12 190 50 L 190 80 C 190 130 190 130 150 130 L 122 130" />

  <path fill="#000033" d="M 40 85 L 80 110 C 110 95 130 85 150 60 L 110 35 C 90 60 70 70 40 85" />
  <path fill="#19191C" d="M 80 110 C 110 95 130 85 150 60 L 160 80 L 80 110" />

  <ellipse stroke="white" stroke-width="1.5" fill="none" transform="translate(117 58) rotate(35)" rx="10" ry="7"/>
  <path stroke="white" stroke-width="1.5" d="M 63 85 L 79 96" />
</svg>
